<?xml version="1.0" encoding="UTF-8"?>
<!DOCTYPE svg PUBLIC "-//W3C//DTD SVG 1.1//EN" "http://www.w3.org/Graphics/SVG/1.1/DTD/svg11.dtd">
<!-- Creator: CorelDRAW 2018 (64-Bit) -->
<svg xmlns="http://www.w3.org/2000/svg" xml:space="preserve" width="76.2mm" height="76.2mm" version="1.1" style="shape-rendering:geometricPrecision; text-rendering:geometricPrecision; image-rendering:optimizeQuality; fill-rule:evenodd; clip-rule:evenodd"
viewBox="0 0 7620000 7620000"
 xmlns:xlink="http://www.w3.org/1999/xlink">
 <defs>
  <style type="text/css">
   <![CDATA[
    .fil1 {fill:#0000BA}
    .fil0 {fill:#FFC200}
   ]]>
  </style>
 </defs>
 <g id="Layer_x0020_1">
  <metadata id="CorelCorpID_0Corel-Layer"/>
  <path class="fil0" d="M2279840 253470l0 839620c0,291170 198320,253460 443570,253460 0,592830 32370,1020360 -136760,1590030 -84200,283630 -190370,490010 -312100,733480l-691770 1415210c-58080,116180 -116160,232360 -174250,348530 -108100,216170 -466570,927180 -504180,1064180 -151160,550460 253090,1122010 916060,1122010l3976350 0c281440,0 518650,-99580 661720,-241280 193880,-192010 288810,-376020 288810,-677550 0,-263190 -226090,-642250 -353810,-897720l-971670 -1974930c-498520,-989020 -528040,-1265890 -528040,-2481960 151220,0 443580,36320 443580,-190100l0 -950510c0,-123990 -81970,-205950 -205950,-205950l-2661450 0c-133430,0 -190110,121190 -190110,253480z"/>
  <polygon class="fil1" points="2675880,396050 4941290,396050 4941290,950510 2675880,950510 "/>
  <path class="fil1" d="M3119470 1821820l0 -475270 1394090 0c0,793970 -32450,1446780 332450,2186450l348760 728500 -2772350 0c74720,-320730 697050,-933700 697050,-2439680z"/>
  <path class="fil1" d="M1265950 6732840c0,-211470 143010,-386480 215100,-561140l751270 -1529990 3168380 0c16000,68670 136410,284370 179760,374710 99750,207820 770770,1512210 770770,1653070 0,162180 -9170,290350 -149630,420660 -69160,64160 -198850,133800 -325630,133800l-4118910 0c-265780,0 -491110,-225340 -491110,-491110z"/>
 </g>
</svg>
