<?xml version="1.0" encoding="UTF-8"?>
<!DOCTYPE svg PUBLIC "-//W3C//DTD SVG 1.1//EN" "http://www.w3.org/Graphics/SVG/1.1/DTD/svg11.dtd">
<!-- Creator: CorelDRAW 2018 (64-Bit) -->
<svg xmlns="http://www.w3.org/2000/svg" xml:space="preserve" width="76.2mm" height="76.2mm" version="1.1" style="shape-rendering:geometricPrecision; text-rendering:geometricPrecision; image-rendering:optimizeQuality; fill-rule:evenodd; clip-rule:evenodd"
viewBox="0 0 7620000 7620000"
 xmlns:xlink="http://www.w3.org/1999/xlink">
 <defs>
  <style type="text/css">
   <![CDATA[
    .fil1 {fill:#0000BA}
    .fil0 {fill:#FFC200}
   ]]>
  </style>
 </defs>
 <g id="Layer_x0020_1">
  <metadata id="CorelCorpID_0Corel-Layer"/>
  <path class="fil0" d="M2031510 1012030c-36910,17720 -75920,28000 -116530,47200 -33310,15730 -68950,36520 -104150,59550 -36330,23780 -61290,46500 -92300,71420 -113080,90880 -267450,354240 -267450,551090l0 5104800c0,396070 377860,773910 773910,773910l3155150 0c451630,0 788800,-390110 788800,-907860l0 -4792250c0,-256570 -43700,-436220 -154970,-589190 -99440,-136680 -266640,-278210 -440350,-318670 0,-111320 16060,-806720 -13750,-879230 -24110,-58650 -99860,-132800 -179730,-132800l-3125390 0c-249550,0 -223270,261420 -223240,386950 50,208370 0,416720 0,625080z"/>
  <polygon class="fil1" points="2492880,461370 5112240,461370 5112240,982270 2492880,982270 "/>
  <path class="fil1" d="M1912450 1771050c0,-163720 163690,-327420 327410,-327420l3110520 0c258900,0 357180,210340 357180,446480l0 848320 -3795110 0 0 -967380z"/>
  <polygon class="fil1" points="1912450,3199810 5707560,3199810 5707560,5402460 1912450,5402460 "/>
  <path class="fil1" d="M5365260 7158630l-3125400 0c-163720,0 -327410,-163690 -327410,-327420l0 -967380 3795110 0 0 848310c0,131060 -20740,228290 -80150,306810 -50860,67180 -152260,139680 -262150,139680z"/>
 </g>
</svg>
