<?xml version="1.0" encoding="UTF-8" standalone="no"?><!DOCTYPE svg PUBLIC "-//W3C//DTD SVG 1.1//EN" "http://www.w3.org/Graphics/SVG/1.1/DTD/svg11.dtd"><svg width="100%" height="100%" viewBox="0 0 123 133" version="1.1" xmlns="http://www.w3.org/2000/svg" xmlns:xlink="http://www.w3.org/1999/xlink" xml:space="preserve" xmlns:serif="http://www.serif.com/" style="fill-rule:evenodd;clip-rule:evenodd;stroke-linejoin:round;stroke-miterlimit:2;"><path d="M37.858,9.464l0,113.223c0,5.224 -4.241,9.464 -9.464,9.464l-18.929,0c-5.224,0 -9.464,-4.241 -9.464,-9.464l0,-113.223c0,-5.224 4.241,-9.464 9.464,-9.464l18.929,0c5.224,0 9.464,4.241 9.464,9.464Z" style="fill:#ffc200;"/><path d="M28.393,20.529l0,61.484c0,2.612 -2.12,4.732 -4.732,4.732l-9.464,0c-2.612,0 -4.732,-2.12 -4.732,-4.732l0,-61.484c0,-2.612 2.12,-4.732 4.732,-4.732l9.464,0c2.612,0 4.732,2.12 4.732,4.732Z" style="fill:#0000ba;"/><path d="M21.195,27.737l0,47.067c0,1.251 -1.015,2.266 -2.266,2.266c-1.251,0 -2.266,-1.015 -2.266,-2.266l0,-47.067c0,-1.251 1.015,-2.266 2.266,-2.266c1.251,0 2.266,1.015 2.266,2.266Z" style="fill:#ffc200;"/><ellipse cx="18.929" cy="105.948" rx="9.464" ry="10.408" style="fill:#0000ba;"/><ellipse cx="18.929" cy="105.948" rx="3.499" ry="3.848" style="fill:#ffc200;"/><path d="M79.981,9.464l0,113.223c0,5.224 -4.241,9.464 -9.464,9.464l-18.929,0c-5.224,0 -9.464,-4.241 -9.464,-9.464l0,-113.223c0,-5.224 4.241,-9.464 9.464,-9.464l18.929,0c5.224,0 9.464,4.241 9.464,9.464Z" style="fill:#ffc200;"/><path d="M70.517,20.529l0,61.484c0,2.612 -2.12,4.732 -4.732,4.732l-9.464,0c-2.612,0 -4.732,-2.12 -4.732,-4.732l0,-61.484c0,-2.612 2.12,-4.732 4.732,-4.732l9.464,0c2.612,0 4.732,2.12 4.732,4.732Z" style="fill:#0000ba;"/><path d="M63.319,27.737l0,47.067c0,1.251 -1.015,2.266 -2.266,2.266c-1.251,0 -2.266,-1.015 -2.266,-2.266l0,-47.067c0,-1.251 1.015,-2.266 2.266,-2.266c1.251,0 2.266,1.015 2.266,2.266Z" style="fill:#ffc200;"/><ellipse cx="61.052" cy="105.948" rx="9.464" ry="10.408" style="fill:#0000ba;"/><ellipse cx="61.052" cy="105.948" rx="3.499" ry="3.848" style="fill:#ffc200;"/><path d="M122.105,9.464l0,113.223c0,5.224 -4.241,9.464 -9.464,9.464l-18.929,0c-5.224,0 -9.464,-4.241 -9.464,-9.464l0,-113.223c0,-5.224 4.241,-9.464 9.464,-9.464l18.929,0c5.224,0 9.464,4.241 9.464,9.464Z" style="fill:#ffc200;"/><path d="M112.64,20.529l0,61.484c0,2.612 -2.12,4.732 -4.732,4.732l-9.464,0c-2.612,0 -4.732,-2.12 -4.732,-4.732l0,-61.484c0,-2.612 2.12,-4.732 4.732,-4.732l9.464,0c2.612,0 4.732,2.12 4.732,4.732Z" style="fill:#0000ba;"/><path d="M105.442,27.737l0,47.067c0,1.251 -1.015,2.266 -2.266,2.266c-1.251,0 -2.266,-1.015 -2.266,-2.266l0,-47.067c0,-1.251 1.015,-2.266 2.266,-2.266c1.251,0 2.266,1.015 2.266,2.266Z" style="fill:#ffc200;"/><ellipse cx="103.176" cy="105.948" rx="9.464" ry="10.408" style="fill:#0000ba;"/><ellipse cx="103.176" cy="105.948" rx="3.499" ry="3.848" style="fill:#ffc200;"/></svg>